<?xml version="1.0" encoding="UTF-8"?>
<svg id="Layer_1" xmlns="http://www.w3.org/2000/svg" viewBox="0 0 200 200">
  <defs>
    <style>
      .cls-1 {
        fill: #fff9ea;
      }
    </style>
  </defs>
  <path class="cls-1" d="M99.86.14C44.79.14,0,44.94,0,100s44.79,99.86,99.86,99.86,99.86-44.79,99.86-99.86S154.92.14,99.86.14ZM99.86,189.7c-39,0-72.55-19.19-86.89-53.03,13.78,20.02,41.66,49.44,84.48,44.7,91.16-10.08,109.09-118.54-12.07-92.04-40.08,8.77-58.49-14.46-27.37-39.01,34.63-27.31,62.93-23.12,60.05,19.72,0,0,14.13-46.61-11.4-50.96-38.57-6.57-85.91,21.15-86.34,61.92-.44,40.76,38.26,52.2,71.44,42.95,53.47-14.9,55.22,25.42,19.72,37.25-47.93,15.98-103.44-15.78-105.92-61.21C2.71,48.08,47.86,9.56,99.86,9.56s84.81,38.44,84.81,90.44-41.2,89.71-84.81,89.7Z"/>
</svg>